# xmcd
#
# Track frame offsets: 
#        150
#        13703
#        26002
#        39254
#        51341
#        62907
#        76113
#        88329
#        100693
#        113797
#        125257
#        137411
#        149152
#        160945
#        172685
#        184657
#        196137
#        207787
#        220430
#        232865
#        245281
#        258581
#        270388
#        282684
#        295518
#
# Disc length: 4117 seconds
#
# Revision: 3
# Processed by: cddbd v1.5.2PL0 Copyright (c) Steve Scherf et al.
# Submitted via: ExactAudioCopyFreeDBPlugin 1.0
#
DISCID=61101319
DTITLE=Big Bill Broonzy - All The Sides [JSP Records]
DYEAR=2005
DGENRE=Blues
TTITLE0=Flat-Foot Susie with Her Flat Yes Yes
TTITLE1=Trucking Little Woman, No. 2
TTITLE2=Hell Ain't But a Mile and a Quarter
TTITLE3=Don't You Lay it on Me
TTITLE4=Done Got Wise
TTITLE5=Louise, Louise
TTITLE6=Spreadin' Snake Blues
TTITLE7=Baby Don't You Remember
TTITLE8=Whiskey and Good Time Blues
TTITLE9=Baby I Done Got Wise
TTITLE10=Preachin' the Blues
TTITLE11=Just a Dream (On My Mind)
TTITLE12=Fightin' Little Rooster
TTITLE13=Mary Blues
TTITLE14=You Can't Sell 'Em in Here
TTITLE15=Just Got to Hold You Tight (take 1)
TTITLE16=Just Got to Hold You Tight (take 2)
TTITLE17=Just Wondering
TTITLE18=Keep on A-Smilin'
TTITLE19=She Never
TTITLE20=Woodie Woodie
TTITLE21=Too Many Drivers
TTITLE22=You Can't Win
TTITLE23=Ride, Alberta, Ride
TTITLE24=That's All Right, Baby
EXTD=
EXTT0=
EXTT1=
EXTT2=
EXTT3=
EXTT4=
EXTT5=
EXTT6=
EXTT7=
EXTT8=
EXTT9=
EXTT10=
EXTT11=
EXTT12=
EXTT13=
EXTT14=
EXTT15=
EXTT16=
EXTT17=
EXTT18=
EXTT19=
EXTT20=
EXTT21=
EXTT22=
EXTT23=
EXTT24=
PLAYORDER=
